<mxfile host="app.diagrams.net" modified="2021-03-19T06:14:39.037Z" agent="5.0 (Macintosh; Intel Mac OS X 10_15_5) AppleWebKit/537.36 (KHTML, like Gecko) Chrome/88.0.4324.192 Safari/537.36" etag="FZmnurl7nqFlfTLrpNpp" version="14.4.6" type="github">
  <diagram id="3tbKJSFBkIZXBH35SvDg" name="第 1 页">
    <mxGraphModel dx="1298" dy="888" grid="1" gridSize="10" guides="1" tooltips="1" connect="1" arrows="1" fold="1" page="1" pageScale="1" pageWidth="827" pageHeight="1169" math="0" shadow="0">
      <root>
        <mxCell id="0" />
        <mxCell id="1" parent="0" />
        <mxCell id="wN6Hmgq2XUdqvaNO75xX-6" value="" style="edgeStyle=orthogonalEdgeStyle;rounded=0;orthogonalLoop=1;jettySize=auto;html=1;fontSize=14;" edge="1" parent="1" source="wN6Hmgq2XUdqvaNO75xX-1" target="wN6Hmgq2XUdqvaNO75xX-4">
          <mxGeometry relative="1" as="geometry" />
        </mxCell>
        <mxCell id="wN6Hmgq2XUdqvaNO75xX-1" value="healing_service" style="rounded=1;whiteSpace=wrap;html=1;fontSize=14;" vertex="1" parent="1">
          <mxGeometry x="310" y="210" width="130" height="50" as="geometry" />
        </mxCell>
        <mxCell id="wN6Hmgq2XUdqvaNO75xX-7" value="" style="edgeStyle=orthogonalEdgeStyle;rounded=0;orthogonalLoop=1;jettySize=auto;html=1;fontSize=14;" edge="1" parent="1" source="wN6Hmgq2XUdqvaNO75xX-2" target="wN6Hmgq2XUdqvaNO75xX-4">
          <mxGeometry relative="1" as="geometry" />
        </mxCell>
        <mxCell id="wN6Hmgq2XUdqvaNO75xX-2" value="healing_labor_service" style="rounded=1;whiteSpace=wrap;html=1;fontSize=14;" vertex="1" parent="1">
          <mxGeometry x="580" y="210" width="170" height="50" as="geometry" />
        </mxCell>
        <mxCell id="wN6Hmgq2XUdqvaNO75xX-3" value="SLS" style="shape=cylinder3;whiteSpace=wrap;html=1;boundedLbl=1;backgroundOutline=1;size=15;fontSize=14;" vertex="1" parent="1">
          <mxGeometry x="590" y="510" width="155" height="80" as="geometry" />
        </mxCell>
        <mxCell id="wN6Hmgq2XUdqvaNO75xX-9" style="edgeStyle=orthogonalEdgeStyle;rounded=0;orthogonalLoop=1;jettySize=auto;html=1;fontSize=14;" edge="1" parent="1" source="wN6Hmgq2XUdqvaNO75xX-4" target="wN6Hmgq2XUdqvaNO75xX-5">
          <mxGeometry relative="1" as="geometry" />
        </mxCell>
        <mxCell id="wN6Hmgq2XUdqvaNO75xX-10" style="edgeStyle=orthogonalEdgeStyle;rounded=0;orthogonalLoop=1;jettySize=auto;html=1;fontSize=14;" edge="1" parent="1" source="wN6Hmgq2XUdqvaNO75xX-4" target="wN6Hmgq2XUdqvaNO75xX-3">
          <mxGeometry relative="1" as="geometry" />
        </mxCell>
        <mxCell id="wN6Hmgq2XUdqvaNO75xX-4" value="LogCollectService" style="rounded=1;whiteSpace=wrap;html=1;fontSize=14;" vertex="1" parent="1">
          <mxGeometry x="310" y="340" width="440" height="50" as="geometry" />
        </mxCell>
        <mxCell id="wN6Hmgq2XUdqvaNO75xX-5" value="RDS" style="shape=cylinder3;whiteSpace=wrap;html=1;boundedLbl=1;backgroundOutline=1;size=15;fontSize=14;" vertex="1" parent="1">
          <mxGeometry x="310" y="510" width="180" height="80" as="geometry" />
        </mxCell>
        <mxCell id="wN6Hmgq2XUdqvaNO75xX-8" value="print log" style="text;html=1;align=center;verticalAlign=middle;resizable=0;points=[];autosize=1;fontSize=14;" vertex="1" parent="1">
          <mxGeometry x="495" y="270" width="70" height="20" as="geometry" />
        </mxCell>
        <mxCell id="wN6Hmgq2XUdqvaNO75xX-11" value="write data" style="text;html=1;align=center;verticalAlign=middle;resizable=0;points=[];autosize=1;fontSize=14;" vertex="1" parent="1">
          <mxGeometry x="410" y="430" width="80" height="20" as="geometry" />
        </mxCell>
        <mxCell id="wN6Hmgq2XUdqvaNO75xX-12" value="write data" style="text;html=1;align=center;verticalAlign=middle;resizable=0;points=[];autosize=1;fontSize=14;" vertex="1" parent="1">
          <mxGeometry x="565" y="430" width="80" height="20" as="geometry" />
        </mxCell>
        <mxCell id="wN6Hmgq2XUdqvaNO75xX-16" style="edgeStyle=orthogonalEdgeStyle;rounded=0;orthogonalLoop=1;jettySize=auto;html=1;entryX=0;entryY=0.5;entryDx=0;entryDy=0;entryPerimeter=0;fontSize=14;exitX=0.5;exitY=1;exitDx=0;exitDy=0;" edge="1" parent="1" source="wN6Hmgq2XUdqvaNO75xX-13" target="wN6Hmgq2XUdqvaNO75xX-5">
          <mxGeometry relative="1" as="geometry" />
        </mxCell>
        <mxCell id="wN6Hmgq2XUdqvaNO75xX-13" value="api_server" style="rounded=1;whiteSpace=wrap;html=1;fontSize=14;" vertex="1" parent="1">
          <mxGeometry x="50" y="350" width="170" height="50" as="geometry" />
        </mxCell>
        <mxCell id="wN6Hmgq2XUdqvaNO75xX-15" value="" style="edgeStyle=orthogonalEdgeStyle;rounded=0;orthogonalLoop=1;jettySize=auto;html=1;fontSize=14;" edge="1" parent="1" source="wN6Hmgq2XUdqvaNO75xX-14" target="wN6Hmgq2XUdqvaNO75xX-13">
          <mxGeometry relative="1" as="geometry" />
        </mxCell>
        <mxCell id="wN6Hmgq2XUdqvaNO75xX-14" value="Web Page" style="rounded=1;whiteSpace=wrap;html=1;fontSize=14;fillColor=#CCCCCC;" vertex="1" parent="1">
          <mxGeometry x="30" y="210" width="210" height="55" as="geometry" />
        </mxCell>
      </root>
    </mxGraphModel>
  </diagram>
</mxfile>
